<svg xmlns="http://www.w3.org/2000/svg" xmlns:xlink="http://www.w3.org/1999/xlink" version="1.1" x="0px" y="0px" viewBox="-589 335 100 125" style="enable-background:new -589 335 100 100;" xml:space="preserve"><style type="text/css">
	.st0{fill:#0f4d8f;}
</style><path class="st0" d="M-510.3,360h2.3c2.8,0,5-2.2,5-5s-2.2-5-5-5h-15c-2.8,0-5,2.2-5,5v14c0,2.8,2.2,5,5,5s5-2.2,5-5v-2.7  c4.7,5.2,7.4,12,7.4,19.1c0,15.6-12.7,28.4-28.4,28.4c-2.8,0-5.6-0.4-8.2-1.2c-2.7-0.8-5.3-2-7.6-3.6c-7.8-5.3-12.5-14.1-12.5-23.5  c0-15.6,12.7-28.4,28.4-28.4c2.8,0,5-2.2,5-5s-2.2-5-5-5c-21.2,0-38.4,17.2-38.4,38.4c0,12.8,6.3,24.7,16.9,31.8  c3.2,2.1,6.6,3.8,10.3,4.9c3.6,1.1,7.3,1.6,11.1,1.6c21.2,0,38.4-17.2,38.4-38.4C-500.6,376-504.1,367-510.3,360z"/></svg>
